<svg width="140" height="40" viewBox="0 0 140 40" fill="none" xmlns="http://www.w3.org/2000/svg">
<path d="M96.8071 17.1766C95.0326 15.1984 92.5163 14.1407 89.5307 14.1172C89.4983 14.1172 89.465 14.1172 89.4325 14.1172C86.1872 14.1172 83.3088 15.2731 81.1034 17.4623C78.6373 19.9105 77.2793 23.4139 77.2793 27.3273C77.2793 30.9102 78.3516 33.9883 80.3809 36.2287C82.5515 38.6241 85.7156 39.8904 89.5324 39.8904C92.3921 39.8904 94.7924 39.1144 96.6674 37.5843C98.4159 36.1581 99.7877 34.0119 100.746 31.2025H99.1749C98.23 32.8292 97.3793 33.8276 96.3387 34.5338C95.0862 35.3837 93.5658 35.779 91.5544 35.779C89.1801 35.779 87.1345 34.7724 85.6393 32.8673C84.3381 31.2098 83.5726 29.0165 83.4793 26.6795H83.4752L83.4728 26.3548H83.5467L83.5418 26.2842L83.6619 26.2745L99.5337 25.013L99.3819 23.2029C99.1578 20.9187 98.2438 18.7781 96.8071 17.1766ZM93.6186 23.2938V23.4699L93.4319 23.4845L83.373 24.2995L83.3665 24.086C83.3234 22.5778 83.4963 20.4138 84.5605 18.6718C85.6003 16.9696 87.2189 16.1059 89.3716 16.1059C90.327 16.1059 91.1428 16.3113 91.7946 16.7172C92.3978 17.0922 92.8686 17.6425 93.1949 18.3528C93.7493 19.5615 93.8913 21.2239 93.6186 23.2938Z" fill="#111111"/>
<path d="M127.236 38.2807C128.325 39.2523 129.826 39.7661 131.579 39.7661C133.498 39.7661 135.33 39.021 136.529 38.396C137.922 37.6695 139.015 36.822 139.566 36.283L138.612 34.9396C137.42 35.7716 135.773 36.3463 134.563 36.3463C133.794 36.3463 133.136 36.1061 132.659 35.6515C132.168 35.1839 131.909 34.5264 131.909 33.7488V18.8568H138.776V14.5782H131.749V5.35938H126.148V9.84418C126.148 12.4539 124.026 14.5766 121.416 14.5766H116.802C115.134 14.5766 113.565 15.3031 112.498 16.5702C111.771 17.4347 111.064 18.5273 110.204 20.1117L110.158 20.1945L109.822 20.1093V14.5757H99.9548V16.0921C100.984 16.1424 101.944 16.5726 102.67 17.3121C103.424 18.0808 103.84 19.0979 103.84 20.1751V34.2793C103.84 35.3857 103.414 36.4287 102.638 37.2177C101.892 37.9775 100.905 38.4183 99.8477 38.4686V39.5506H114.24V38.4686C113.181 38.4183 112.194 37.9767 111.449 37.2177C110.675 36.4287 110.248 35.3848 110.248 34.2793V22.8895C110.248 22.7734 110.28 22.6281 110.343 22.456C110.404 22.288 110.496 22.094 110.61 21.8975C110.798 21.5704 111.136 21.0745 111.675 20.5663C112.504 19.7854 113.943 18.8544 116.092 18.8544H121.246C122.352 18.8544 123.434 18.4055 124.213 17.623L125.5 16.3315V34.0605C125.5 35.8073 126.1 37.266 127.235 38.2807H127.236Z" fill="#111111"/>
<path fill-rule="evenodd" clip-rule="evenodd" d="M46.5326 0.763615V13.0479H46.5294V33.4062C46.5294 36.7819 43.8035 39.5244 40.4278 39.5447H22.6038V38.4632C23.9789 38.4023 25.2152 37.7254 26.0107 36.5922C26.8289 35.4266 27.0358 33.9859 26.5772 32.6377L24.9383 28.0561H11.2549L9.41074 32.744C8.9018 34.0395 9.05287 35.4463 9.82563 36.6038C10.5757 37.728 11.7673 38.4008 13.1074 38.4625V39.544H0.738281V38.4676H1.37549C3.0866 38.4676 4.61024 37.4415 5.25639 35.8545L19.5567 0.757812L21.439 0.759626L34.0884 33.1084C35.0491 35.33 35.6171 36.7978 36.8128 37.0053C38.5532 37.2736 39.8298 36.2117 40.2331 34.0887C40.2927 33.7071 40.3147 33.208 40.3078 32.5369L40.2476 27.5575L40.2229 13.0479H40.2135V9.1949C40.2222 7.46247 39.763 6.30586 37.4086 6.22719L36.7928 6.2116L36.8102 4.5339L45.2285 0.757812L46.5326 0.763615ZM12.1235 24.9633H23.888L18.0059 10.082L12.1235 24.9633Z" fill="#111111"/>
<path d="M56.5852 17.9192L56.9417 17.5054C58.3005 15.9274 60.3948 14.1163 64.558 14.1163C67.8373 14.1171 70.6112 15.2424 72.5788 17.3723C74.6502 19.6151 75.7452 22.9345 75.7452 26.9021C75.7452 30.8697 74.5705 34.1993 72.3481 36.5306C70.2823 38.697 67.3649 39.8903 64.1319 39.8903C61.7755 39.8903 59.9181 39.4496 58.4562 38.5437L58.3847 38.4991C57.4951 37.9334 56.4917 37.6599 55.495 37.6599L55.4957 37.6592C53.9462 37.6592 52.4119 38.3208 51.3454 39.5708H50.1776V6.41397C50.1776 6.2918 50.1714 6.17046 50.1602 6.05021V0.757812H56.5852V17.9192ZM63.1222 16.7464C61.3251 16.7464 59.8216 17.4519 58.656 18.8415C57.6657 20.0209 56.953 21.6452 56.5366 23.6671L56.5326 23.6874L56.5333 23.686V30.4664C56.5334 34.4697 59.2152 37.3755 62.9101 37.3756C64.7055 37.3755 66.1619 36.7596 67.2407 35.5445C68.222 34.4389 68.8497 32.8366 69.0584 30.9056H69.0598L69.0736 30.7529C69.2814 28.515 69.2888 25.9588 69.0932 23.7404L69.0736 23.5293C68.8829 21.4903 68.2595 19.7927 67.2701 18.6206C66.2344 17.395 64.7999 16.7464 63.1222 16.7464Z" fill="#111111"/>
</svg>
